<?xml version="1.0" encoding="UTF-8" standalone="no"?>
<svg width="227px" height="65px" viewBox="0 0 227 65" version="1.1" xmlns="http://www.w3.org/2000/svg" xmlns:xlink="http://www.w3.org/1999/xlink" xmlns:sketch="http://www.bohemiancoding.com/sketch/ns">
    <title>Untitled 3</title>
    <description>Created with Sketch (http://www.bohemiancoding.com/sketch)</description>
    <defs>
        <path id="path-1" d="M15,30.45 C23.2842717,30.45 30,23.6335357 30,15.225 C30,6.81646427 23.2842717,0 15,0 C6.71572834,0 0,6.81646427 0,15.225 C0,23.6335357 6.71572834,30.45 15,30.45 Z"></path>
        <path id="path-2" d="M15,24.15 C19.8562972,24.15 23.7931034,20.1541416 23.7931034,15.225 C23.7931034,10.2958584 19.8562972,6.3 15,6.3 C10.1437028,6.3 6.20689655,10.2958584 6.20689655,15.225 C6.20689655,20.1541416 10.1437028,24.15 15,24.15 Z"></path>
        <path id="path-3" d="M15,19.95 C17.5709809,19.95 19.6551724,17.8345456 19.6551724,15.225 C19.6551724,12.6154544 17.5709809,10.5 15,10.5 C12.4290191,10.5 10.3448276,12.6154544 10.3448276,15.225 C10.3448276,17.8345456 12.4290191,19.95 15,19.95 Z"></path>
        <path id="path-4" d="M25,50.7998264 C38.8071194,50.7998264 50,39.4278986 50,25.3999132 C50,11.3719278 38.8071194,0 25,0 C11.1928806,0 0,11.3719278 0,25.3999132 C0,39.4278986 11.1928806,50.7998264 25,50.7998264 Z"></path>
        <path id="path-5" d="M25.4901961,40.2895175 C33.612031,40.2895175 40.1960784,33.623215 40.1960784,25.3999132 C40.1960784,17.1766114 33.612031,10.5103089 25.4901961,10.5103089 C17.3683611,10.5103089 10.7843137,17.1766114 10.7843137,25.3999132 C10.7843137,33.623215 17.3683611,40.2895175 25.4901961,40.2895175 Z"></path>
        <path id="path-6" d="M25.4901961,33.2826449 C29.8218414,33.2826449 33.3333333,29.7534259 33.3333333,25.3999132 C33.3333333,21.0464005 29.8218414,17.5171815 25.4901961,17.5171815 C21.1585508,17.5171815 17.6470588,21.0464005 17.6470588,25.3999132 C17.6470588,29.7534259 21.1585508,33.2826449 25.4901961,33.2826449 Z"></path>
    </defs>
    <g id="Page-1" stroke="none" stroke-width="1" fill="none" fill-rule="evenodd" sketch:type="MSPage">
        <g id="symbol" sketch:type="MSLayerGroup">
            <g id="Oval-1">
                <use fill="#000000" fill-rule="evenodd" sketch:type="MSShapeGroup" xlink:href="#path-1"></use>
                <use fill="none" xlink:href="#path-1"></use>
            </g>
            <g id="Oval-1">
                <use fill="#FFFFFF" fill-rule="evenodd" sketch:type="MSShapeGroup" xlink:href="#path-2"></use>
                <use fill="none" xlink:href="#path-2"></use>
            </g>
            <g id="Oval-1">
                <use fill="#CB0011" fill-rule="evenodd" sketch:type="MSShapeGroup" xlink:href="#path-3"></use>
                <use fill="none" xlink:href="#path-3"></use>
            </g>
        </g>
        <g id="symbol-copy" sketch:type="MSLayerGroup" transform="translate(176.000000, 13.000000)">
            <g id="Oval-1">
                <use fill="#000000" fill-rule="evenodd" sketch:type="MSShapeGroup" xlink:href="#path-4"></use>
                <use fill="none" xlink:href="#path-4"></use>
            </g>
            <g id="Oval-1">
                <use fill="#FFFFFF" fill-rule="evenodd" sketch:type="MSShapeGroup" xlink:href="#path-5"></use>
                <use fill="none" xlink:href="#path-5"></use>
            </g>
            <g id="Oval-1">
                <use fill="#CB0011" fill-rule="evenodd" sketch:type="MSShapeGroup" xlink:href="#path-6"></use>
                <use fill="none" xlink:href="#path-6"></use>
            </g>
        </g>
        <text id="n" sketch:type="MSTextLayer" font-family="Helvetica" font-size="110" font-weight="bold" sketch:alignment="middle" fill="#000000">
            <tspan x="27.5" y="62">n</tspan>
        </text>
        <text id="e" sketch:type="MSTextLayer" transform="translate(105.500000, 32.000000) rotate(-45.000000) translate(-105.500000, -32.000000) " font-family="Helvetica" font-size="91.29" font-weight="bold" sketch:alignment="middle" fill="#000000">
            <tspan x="80" y="65">e</tspan>
        </text>
        <text id="n" sketch:type="MSTextLayer" font-family="Helvetica" font-size="90" font-weight="bold" sketch:alignment="middle" fill="#000000">
            <tspan x="127.5" y="62">n</tspan>
            <tspan x="182.5" y="62" font-size="88.5046154"></tspan>
        </text>
    </g>
</svg>